<?xml version="1.0" encoding="UTF-8"?><svg id="Calque_1" xmlns="http://www.w3.org/2000/svg" viewBox="0 0 1019.33632 560.2007"><polygon points="462.60559 351.95044 485.1286 277.01941 498.8526 277.01941 502.94464 263.43646 460.48663 263.43646 456.39459 277.01941 470.11963 277.01941 447.59662 351.95044 462.60559 351.95044"/><path d="M483.2995,351.95044h15.00903l10.79199-35.82599h5.75403l.26099,35.82599h14.93201l-.76202-38.495c7.09198-3.19098,11.87604-8.04602,16.46503-23.20398,1.12201-3.80603,1.83801-7.17804,2.12598-10.02301.521-5.14899-.521-9.20502-3.099-12.05804-2.83997-3.14099-7.48999-4.73395-13.82202-4.73395h-21.04199l-26.61401,88.51398ZM520.83252,277.01941h6.52704c2.03998,0,3.414.42303,4.20099,1.29401.81.89502,1.09399,2.40802.87,4.62402-.164,1.612-.64502,3.75299-1.51501,6.73499-2.70599,9.15204-6.24902,13.23303-11.48401,13.23303h-6.39697l7.79797-25.88605Z"/><path d="M547.72791,351.95044l8.81403-17.48901h17.29895l-1.89197,17.48901h14.96698l6.22504-88.51398h-14.34302l-47.12701,88.51398h16.05701ZM578.4389,289.94641l-3.33099,30.93304h-11.776l15.10699-30.93304Z"/><polygon points="607.00189 351.95044 633.61688 263.43646 618.6059 263.43646 591.99188 351.95044 607.00189 351.95044"/><polygon points="633.59833 351.95044 647.93134 304.29346 651.06934 351.95044 663.11133 351.95044 689.7243 263.43646 674.70831 263.43646 660.8573 310.95245 657.72931 263.43646 645.20233 263.43646 618.58832 351.95044 633.59833 351.95044"/><polygon points="689.58411 351.95044 716.1991 263.43646 701.18909 263.43646 674.57513 351.95044 689.58411 351.95044"/><polygon points="716.1806 351.95044 730.51361 304.29346 733.65161 351.95044 745.6936 351.95044 772.30658 263.43646 757.29059 263.43646 743.44061 310.95245 740.31158 263.43646 727.78461 263.43646 701.17059 351.95044 716.1806 351.95044"/><path d="M817.80701,268.6142l-.00598-.008c-2.83405-4.01801-7.87799-6.14203-14.58899-6.14203-7.16003,0-12.50604,1.95502-17.32605,6.33105-6.41296,5.70599-9.68695,12.92096-17.51996,38.60699-3.89301,13.104-5.763,20.75195-6.25,25.56995-.56104,5.54401-.08502,8.80902,1.82697,12.48901,2.69904,5.02002,7.57098,7.46002,14.89502,7.46002,14.18896,0,23.14697-7.87201,28.19-24.77502l7.552-25.24097h-22.91199l-3.58801,12.48999h7.87396l-3.97894,13.13501c-2.16003,7.172-5.73804,10.80798-10.63306,10.80798-1.54095,0-2.63098-.37701-3.33197-1.15198-.89099-.98602-1.21802-2.711-.974-5.13.466-4.59802,2.42499-12.565,6.16199-25.06403,6.52802-21.34698,8.56702-26.33899,12.13501-29.68396,1.60999-1.56305,3.38098-2.26105,5.73999-2.26105,1.57202,0,2.72101.39099,3.41803,1.16101.83795.92798,1.14899,2.52899.92297,4.76202-.159,1.57495-.297,2.935-.81799,4.66101l-.39697,1.31696h15.03497l.203-.758c.60797-2.26501.771-3.87799.96002-5.74799.49396-4.883-.49805-9.79901-2.59003-12.828Z"/><polygon points="469.53461 380.33521 473.62659 366.7522 431.16962 366.7522 427.07758 380.33521 440.80261 380.33521 418.27856 455.26617 433.28857 455.26617 455.81262 380.33521 469.53461 380.33521"/><polygon points="509.62421 366.75269 498.49121 403.55066 484.59216 403.55066 495.60321 366.75269 480.59619 366.75269 453.98218 455.26666 468.99121 455.26666 480.5152 417.01166 494.53223 417.01166 483.00818 455.26666 498.01819 455.26666 524.63318 366.75269 509.62421 366.75269"/><polygon points="554.4364 417.37598 558.51941 403.914 539.93341 403.914 547.0144 380.33502 568.63141 380.33502 572.72443 366.75299 536.0954 366.75299 509.48041 455.26697 546.10938 455.26697 550.20038 441.68402 528.57941 441.68402 535.85742 417.37598 554.4364 417.37598"/><path d="M617.47333,393.57489l.00201-.00702c1.12201-3.80499,1.83698-7.17798,2.125-10.02301.52197-5.14899-.521-9.20599-3.099-12.05798-2.84003-3.14099-7.48999-4.73401-13.82104-4.73401h-21.04297l-26.61401,88.51404h15.00903l10.79297-35.82703h5.75403l.26001,35.82703h14.93298l-.763-38.49402c7.09302-3.19202,11.87598-8.047,16.46399-23.198ZM591.15533,406.22186h-6.39703l7.79803-25.88696h6.52698c2.04004,0,3.414.42401,4.20099,1.29498.81.89502,1.09406,2.40802.87006,4.62402-.16302,1.612-.64502,3.75299-1.51404,6.73499-2.70697,9.15198-6.24902,13.23297-11.48499,13.23297Z"/><path d="M650.52209,366.75269l-47.12701,88.51398h16.05701l8.81403-17.48798h17.29901l-1.89203,17.48798h14.96698l6.22504-88.51398h-14.34302ZM646.83209,424.19568h-11.776l15.10699-30.93298-3.33099,30.93298Z"/><path d="M727.98889,384.15234c.55298-5.45599-.48102-9.68402-3.07202-12.56702-3.08496-3.43298-7.21997-4.83301-14.27295-4.83301h-20.31403l-26.61304,88.51404h15.01001l10.09802-33.76105h7.98199c15.30402,0,23.20502-7.33997,29.15503-27.09296,1.03796-3.59198,1.68201-6.85303,2.02698-10.26001ZM712.8219,386.49634c-.172,1.70801-.74298,4.17603-1.69598,7.33801-3.172,10.53296-6.33801,14.08795-12.54401,14.08795h-5.66602l8.33301-27.58698h5.91901c2.336,0,3.88898.46204,4.74799,1.41302.83899.92798,1.13599,2.48199.90601,4.74799Z"/><polygon points="743.0368 366.75269 716.42279 455.26666 731.4328 455.26666 758.04681 366.75269 743.0368 366.75269"/><polygon points="743.01849 455.2666 779.64551 455.2666 783.73749 441.68457 762.11749 441.68457 769.39447 417.37561 787.97351 417.37561 792.0575 403.91461 773.4715 403.91461 780.55249 380.33557 802.16949 380.33557 806.26147 366.75262 769.63251 366.75262 743.01849 455.2666"/><polygon points="446.6778 156.1333 461.55682 104.19629 237.63782 104.19629 222.75781 156.1333 308.69281 156.1333 245.60583 376.34631 297.62579 376.34631 360.71484 156.1333 446.6778 156.1333"/><polygon points="518.20563 183.46411 379.94159 183.46411 302.13763 455.61407 354.07458 455.61407 417.1626 235.40112 502.6236 235.40112 518.20563 183.46411"/></svg>